<svg width="100" height="100" fill="none">
   <g data-testid="My Logo" style="fill: rgb(0, 0, 0);">
      <rect rx="12" ry="12" width="100" height="100" style="fill: rgb(9, 9, 11); fill-opacity: 1;" class="fills" data-testid="Rectangle"/>
      <path d="m20.321 29.17-.321.252V42.86c0 12.027.02 13.455.19 13.596.433.358.73.009 3.054-3.584 2.837-4.388 5.463-8.442 6.605-10.198l.875-1.344V29.514l-.299-.297-.299-.298h-4.742c-4.613 0-4.751.007-5.063.251Zm38.35-.071c-.142.099-.411.44-.597.758s-1.453 2.304-2.816 4.413c-1.593 2.467-2.477 3.948-2.477 4.15 0 .187.096.365.236.44.152.081 2.041.125 5.297.125 5.004 0 5.062.003 5.197.253.105.196.096.298-.04.455-.097.111-.56.802-1.029 1.536-.469.734-1.957 3.046-3.307 5.138-1.35 2.092-2.454 3.925-2.454 4.074 0 .149.1.361.223.472.198.179.695.201 4.539.202 3.267.001 4.47.042 4.944.168 3.119.826 4.817 4.311 3.483 7.148-.406.863-1.277 1.881-1.998 2.336-1.623 1.024-4 1.026-5.75.006-1.13-.66-2.092-2.077-2.399-3.535-.084-.4-.228-.85-.321-1l-.167-.273h-4.61c-5.536 0-5.113-.138-4.907 1.601a14.835 14.835 0 0 0 2.151 6.11c3.534 5.643 9.474 8.317 15.832 7.127 6.159-1.153 10.886-5.802 12.092-11.894.254-1.285.279-3.813.049-5.127-.746-4.276-3.594-8.247-7.412-10.334-1.048-.573-1.198-.781-.963-1.337.167-.394 1.575-2.583 5.723-8.897 1.402-2.134 2.158-3.395 2.158-3.601 0-.721.405-.694-10.481-.694-8.587 0-9.973.025-10.196.18Zm-17.059.214c-.134.15-.511.71-.839 1.243-.328.534-2.1 3.317-3.938 6.186-5.794 9.042-16.286 25.45-16.566 25.908-.262.427-.269.536-.269 4.132v3.694l.282.264c.28.261.323.264 5.041.264 4.63 0 4.768-.007 5.08-.252l.321-.251v-5.84l.632-.983c.347-.54 2.642-4.066 5.098-7.835C49.605 35.67 53.269 29.958 53.269 29.628c0-.163-.066-.362-.146-.442-.11-.109-1.545-.146-5.707-.146h-5.56l-.244.273Zm-.24 22.983c-1.227 1.759-5.286 8.257-5.286 8.462 0 .139.31.741.688 1.338.379.597 1.673 2.668 2.877 4.602 1.203 1.935 2.322 3.695 2.486 3.911l.298.395h11.304l.252-.32c.329-.416.32-.522-.092-1.087-.345-.475-2.145-3.268-8.004-12.419-1.73-2.702-3.227-5.008-3.327-5.125-.322-.374-.838-.269-1.196.243Z" fill-rule="evenodd" style="fill: rgb(244, 244, 244); fill-opacity: 1;" class="fills" data-testid="svg-path"/>
   </g>
</svg>
